<svg data-v-0dd9719b="" version="1.0" xmlns="http://www.w3.org/2000/svg" xmlns:xlink="http://www.w3.org/1999/xlink" width="100%" height="100%" viewBox="0 0 340.000000 250.000000" preserveAspectRatio="xMidYMid meet" color-interpolation-filters="sRGB" style="margin: auto;"> <rect data-v-0dd9719b="" x="0" y="0" width="100%" height="100%" fill="#fff" fill-opacity="1" class="background"></rect> <rect data-v-0dd9719b="" x="0" y="0" width="100%" height="100%" fill="url(#watermark)" fill-opacity="1" class="watermarklayer"></rect> <g data-v-0dd9719b="" fill="#333" class="icon-text-wrapper icon-svg-group iconsvg" transform="translate(47.97652435348479,94.8967456817627)"><g class="iconsvg-imagesvg" transform="translate(0,0)"><g><rect fill="#333" fill-opacity="0" stroke-width="2" x="0" y="0" width="60" height="60.20650832354978" class="image-rect"></rect> <svg x="0" y="0" width="60" height="60.20650832354978" filtersec="colorsb4783092587" class="image-svg-svg primary" style="overflow: visible;"><svg xmlns="http://www.w3.org/2000/svg" viewBox="0.04000000283122063 0 488.6200256347656 490.3000183105469"><path d="M400.88 93.36H254.21L87.52 241.28H62.96v-26.87l162.4-150.2h148.31l27.21 29.15zM194.32 29.42l-163.87 150v94h87.22l166.7-146.14h148.07l26.27 27.92H310.57L144.52 302.22c-54.47 0-90-.05-144.39-.05H.04L.19 153 166.85 0h146.76L341 29.33l-146.68.06z" fill="#cf0023"></path><path fill="#ff4f55" d="M194.32 29.42L166.85 0l148.32.03 27.39 29.33-148.24.06zM310.37 155.38l-26.13-27.98.13-.12h148.06l26.51 28.1H310.37zM401.97 94.14l-148.66.01-27.96-29.94 148.3-.01 28.32 29.94z"></path><path d="M296.02 460.88l162.3-151v-93h-87.19L204.41 363H56.34l-26.28-27.91H178.2l166.07-147c54.47 0 90 .06 144.39.06l-.14 148.73-165 153.42H175.2l-27.39-29.33 148.24-.06z" fill="#cf0023"></path><path fill="#ff4f55" d="M296.02 460.88l27.47 29.42-148.32-.03-27.39-29.33 148.24-.06zM204.52 362.9l-.12.12H56.34l-26.28-27.91H178.2l26.32 27.79z"></path><path fill="#d60019" d="M87.89 396.95l146.67.01 166.73-147.59 24.66-.12.05 26.39-162.6 150.45H115.1l-27.21-29.14z"></path><path fill="#ff4f55" d="M87.9 396.95l146.67.01 28.85 29.13H115.11L87.9 396.95z"></path></svg></svg> <!----></g></g> <g transform="translate(67,0.8170032501220703)"><g data-gra="path-name" fill-rule="" class="tp-name iconsvg-namesvg" transform="translate(0,0)"><g transform="scale(1)"><g><path d="M41.09-34.38L41.09-34.38Q42.75-31.99 40.32-30.15L40.32-30.15Q37.93-28.35 36.36-30.82L36.36-30.82Q36.36-31.27 34.56-32.8L34.56-32.8Q32.4-34.74 34.65-36.41 36.9-38.07 39.2-36.23L39.2-36.23Q41.13-34.74 41.09-34.38ZM5.49-36.81L22.54-36.81 22.54-33.98Q22.54-31.05 19.62-31.05L19.62-31.05 8.41-31.05Q5.49-31.05 5.49-33.98L5.49-33.98 5.49-36.81ZM19.17-11.16L19.17-5.49Q21.46-5.89 25.92-6.71L25.92-6.71 26.19-3.55Q26.41-0.63 23.58-0.09L23.58-0.09Q16.96 1.26 5.58 3.28L5.58 3.28Q2.7 3.78 1.89 0.58L1.89 0.58Q1.13-2.61 4.05-2.97L4.05-2.97 4.63-3.1 4.63-18.63 10.62-18.63 10.62-4.05 12.91-4.41 12.91-21.24 19.17-21.24 19.17-16.88 24.97-16.88 24.97-14.08Q24.97-11.16 22.05-11.16L22.05-11.16 19.17-11.16ZM42.84-28.3L42.84-25.24Q42.84-22.32 39.91-22.32L39.91-22.32 32.22-22.32Q32.85-13.68 34.2-7.92 35.55-2.16 37.13-2.16L37.13-2.16Q38.2-2.16 38.48-10.13L38.48-10.13 41.4-8.1Q43.83-6.48 43.47-3.6L43.47-3.6Q43.06 1.67 40.23 3.46L40.23 3.46Q38.84 4.32 36.49 4.32L36.49 4.32Q27.58 4.32 25.7-22.32L25.7-22.32 5.04-22.32Q2.11-22.32 2.11-25.24L2.11-25.24 2.11-28.3 25.38-28.3Q25.2-32.67 25.2-38.25L25.2-38.25 31.86-38.25Q31.72-32.89 31.9-28.3L31.9-28.3 42.84-28.3ZM56.74-35.32L58.09-34.52Q60.52-32.89 58.68-30.24L58.68-30.24Q56.88-27.58 54.54-29.38L54.54-29.38 53.28-30.24Q50.89-31.72 51.21-31.45L51.21-31.45Q48.65-32.8 50.35-35.19L50.35-35.19Q52.06-37.62 54.72-36.36L54.72-36.36Q54.31-36.67 56.74-35.32L56.74-35.32ZM56.16-22.86L56.16-22.86Q58.55-21.15 56.84-18.36L56.84-18.36Q55.13-15.62 52.88-17.55L52.88-17.55Q52.42-17.91 49.01-19.39L49.01-19.39Q46.4-20.65 47.97-23.13L47.97-23.13Q49.59-25.65 52.29-24.57L52.29-24.57Q55.3-23.49 56.16-22.86ZM55.84-14.67L55.84-14.67 58.32-12.29Q60.39-10.26 59.09-7.65L59.09-7.65Q56.61-2.61 54.23 1.3L54.23 1.3Q52.74 3.82 50.09 1.57L50.09 1.57Q47.48-0.63 49.09-3.06L49.09-3.06Q51.8-6.79 55.84-14.67ZM80.55-29.74L80.55-29.74 68.49-29.74Q70.56-20.43 74.7-13.81L74.7-13.81Q78.8-20.29 80.55-29.74ZM64.26-35.91L83.3-36.18 84.64-35.73Q87.44-34.83 87.03-31.95L87.03-31.95Q85.59-17.95 78.84-8.46L78.84-8.46Q83.25-3.78 86.49-2.56L86.49-2.56Q89.14-1.35 86.98 1.35 84.82 4.05 82.22 2.7L82.22 2.7Q78.75 1.17 74.43-3.42L74.43-3.42Q69.39 1.26 64.89 2.97L64.89 2.97Q62.23 4.14 60.39 1.4 58.55-1.35 61.29-2.38L61.29-2.38Q65.56-3.69 70.38-8.5L70.38-8.5Q65.3-16.2 63-26.14L63-26.14Q62.28-28.98 65.16-29.56L65.16-29.56 66.02-29.74 64.26-29.74Q61.34-29.74 61.34-32.67L61.34-32.67 61.34-32.98Q61.34-35.91 64.26-35.91L64.26-35.91ZM107.19-29.38Q107.19-27.13 103.95-27.13 100.71-27.13 100.71-29.38L100.71-29.38 95.31-29.38Q92.39-29.38 92.39-32.31L92.39-32.31 92.39-35.28 100.71-35.28 100.71-38.48 107.19-38.48 107.19-35.28 112.05-35.28 112.05-32.31Q112.05-29.38 109.13-29.38L109.13-29.38 107.19-29.38ZM103.23-17.86L103.23-19.98 99.54-19.98 99.54-17.86 103.23-17.86ZM99.54-12.55L99.54-11.03Q99.54-10.17 100.39-10.17L100.39-10.17 102.38-10.17Q103.23-10.17 103.23-11.03L103.23-11.03 103.23-12.55 99.54-12.55ZM109.22-25.56L109.22-7.51Q109.22-4.59 106.29-4.59L106.29-4.59 96.57-4.59Q93.64-4.59 93.64-7.51L93.64-7.51 93.64-25.56 109.22-25.56ZM118.39-13.18L118.39-11.07 124.92-11.07 124.92-13.18 118.39-13.18ZM124.92-18.63L124.92-20.52 118.39-20.52 118.39-18.63 124.92-18.63ZM112.14-26.1L131.35-26.1 131.35-2.92Q131.35-0.67 130.81 0.63 130.28 1.93 128.88 2.61L128.88 2.61Q126.77 3.69 124.02 3.38L124.02 3.38Q121.14 3.69 120.24 0.94L120.24 0.94 119.11-2.29Q120.91-2.21 123.97-2.21L123.97-2.21Q124.92-2.21 124.92-3.01L124.92-3.01 124.92-5.63 117.09-5.63Q114.75 1.13 110.34 2.88L110.34 2.88Q107.82 4.32 105.93 1.71L105.93 1.71 105.7 1.48Q103.72-0.63 106.34-1.98L106.34-1.98Q109.26-3.1 110.84-6.97L110.84-6.97Q111.64-8.91 111.87-10.48L111.87-10.48Q112.14-12.11 112.14-14.31L112.14-14.31 112.14-26.1ZM124.2-38.48L124.2-35.28 132.8-35.28 132.8-32.31Q132.8-29.38 129.87-29.38L129.87-29.38 124.2-29.38Q124.2-27.13 120.91-27.13L120.91-27.13Q117.67-27.13 117.67-29.38L117.67-29.38 116.23-29.38Q113.31-29.38 113.31-32.31L113.31-32.31 113.31-35.28 117.67-35.28 117.67-38.48 124.2-38.48ZM145.89-15.62L145.89-15.62Q145.4-14.94 146.21-15.07L146.21-15.07 150.93-15.84 150.79-13.46Q150.71-10.53 147.87-9.95L147.87-9.95Q139.41-8.32 140.4-8.5L140.4-8.5Q137.75-7.29 136.84-9.95L136.84-9.95Q135.94-12.64 137.52-13.5L137.52-13.5 142.34-19.39 140.22-18.95Q137.38-18.36 136.44-21.24L136.44-21.24Q135.5-24.16 137.61-26.23L137.61-26.23 138.06-26.82Q138.96-28.13 140.58-31.77L140.58-31.77Q142.25-35.41 143.19-38.88L143.19-38.88 146.25-37.35Q148.86-36.05 147.69-33.34L147.69-33.34Q146.56-30.29 143.15-25.24L143.15-25.24Q142.69-24.52 143.55-24.57L143.55-24.57 145.62-24.7Q147.01-27.13 148-29.29L148-29.29 150.25-27.72Q152.69-26.1 151.29-23.54L151.29-23.54Q149.72-20.38 145.89-15.62ZM139.91 1.93L139.91 1.93Q137.07 2.65 136.53-0.4L136.53-0.4Q136.03-3.46 138.91-4L138.91-4Q140.13-4.18 150.93-6.61L150.93-6.61 151.2-4.18Q151.47-1.26 148.68-0.49L148.68-0.49Q146.12 0.27 139.91 1.93ZM162.5-7.69L162.5-9 158.94-9 158.94-7.69Q158.94-6.84 159.79-6.84L159.79-6.84 161.64-6.84Q162.5-6.84 162.5-7.69L162.5-7.69ZM167.76-13.81L167.76-4.91Q167.76-1.98 164.84-1.98L164.84-1.98 156.69-1.98Q153.76-1.98 153.76-4.91L153.76-4.91 153.76-13.81 167.76-13.81ZM158.31-20.88L158.31-20.88 171.94-20.88Q168.7-22.68 164.84-24.3L164.84-24.3Q162.54-22.18 158.31-20.88ZM174.64-20.88L178.78-20.88 178.78-18.22Q178.78-15.3 175.5-15.3L175.5-15.3 175.5-1.98Q175.5 0.27 175 1.48L175 1.48Q174.56 2.7 173.2 3.33L173.2 3.33Q171.13 4.32 168.88 4.32L168.88 4.32Q165.96 4.23 165.15 1.35L165.15 1.35Q164.38-1.53 167.31-1.53L167.31-1.53 168.53-1.53Q169.38-1.53 169.38-2.38L169.38-2.38 169.56-15.3 154.89-15.3Q151.97-15.3 151.97-18.22L151.97-18.22 151.97-20.88 155.12-20.88Q154.03-23.27 154.13-22.63L154.13-22.63Q152.37-25.02 155.2-25.7L155.2-25.7Q159.39-26.32 161.37-29.52L161.37-29.52 156.51-29.52Q153.59-29.52 153.59-32.45L153.59-32.45 153.59-34.96 162.85-34.96 162.85-38.48 169.2-38.48 169.2-34.96 177.44-34.96 177.44-32.45Q177.44-29.52 174.51-29.52L174.51-29.52 168.07-29.52 167.89-29.02Q174.24-26.86 175.19-26.14L175.19-26.14Q177.7-24.61 175.86-22.36L175.86-22.36 174.64-20.88Z" transform="translate(-1.7330434322357178, 38.880001068115234)"></path></g> <!----> <!----> <!----> <!----> <!----> <!----> <!----></g></g> <g data-gra="path-slogan" fill-rule="" class="tp-slogan iconsvg-slogansvg" fill="#333" transform="translate(5.000007629394531,49.20000076293945)"><rect x="0" height="1" y="4.185000419616699" width="32.663475036621094"></rect> <rect height="1" y="4.185000419616699" width="32.663475036621094" x="134.38347625732422"></rect> <g transform="translate(35.663475036621094,0)"><g transform="scale(1)"><path d="M5.67-7.13L5.63-7.13L3.66 0L2.44 0L0.19-8.58L1.41-8.58L3.05-1.59L3.09-1.59L5.02-8.58L6.28-8.58L8.20-1.59L8.25-1.59L9.84-8.58L11.11-8.58L8.86 0L7.64 0L5.67-7.13ZM17.86-3.19L17.86-8.58L19.03-8.58L19.03-3.05Q18.89 0.05 15.52 0.14L15.52 0.14Q12.38 0.05 12.23-2.86L12.23-2.86L12.23-8.58L13.41-8.58L13.41-3.19Q13.45-0.84 15.56-0.80L15.56-0.80Q17.86-0.84 17.86-3.19L17.86-3.19ZM21.98-5.06L26.48-5.06L26.48-8.58L27.66-8.58L27.66 0L26.48 0L26.48-3.98L21.98-3.98L21.98 0L20.81 0L20.81-8.58L21.98-8.58L21.98-5.06ZM35.11 0L34.27-2.48L30.80-2.48L29.91 0L28.73 0L31.97-8.58L33.28-8.58L36.38 0L35.11 0ZM32.53-7.31L31.17-3.52L33.84-3.52L32.58-7.31L32.53-7.31ZM38.81-8.58L43.13-1.64L43.13-8.58L44.25-8.58L44.25 0L42.94 0L38.58-6.94L38.53-6.94L38.53 0L37.41 0L37.41-8.58L38.81-8.58ZM57.61-8.58L57.61 0L56.48 0L56.48-5.06Q56.48-5.77 56.48-7.22L56.48-7.22L54.05 0L52.88 0L50.48-7.22L50.44-7.22Q50.44-6.70 50.48-5.67L50.48-5.67Q50.48-5.16 50.48-5.06L50.48-5.06L50.48 0L49.31 0L49.31-8.58L51-8.58L53.48-1.31L55.92-8.58L57.61-8.58ZM60.61-1.03L65.77-1.03L65.77 0L59.44 0L59.44-8.58L65.67-8.58L65.67-7.59L60.61-7.59L60.61-4.92L65.30-4.92L65.30-3.89L60.61-3.89L60.61-1.03ZM68.67-8.58L72.98-1.64L72.98-8.58L74.11-8.58L74.11 0L72.80 0L68.44-6.94L68.39-6.94L68.39 0L67.27 0L67.27-8.58L68.67-8.58ZM82.31-3.61L79.69-3.61L79.69-4.59L83.44-4.59L83.44 0L82.69 0L82.41-1.08Q81.42 0.09 79.59 0.14L79.59 0.14Q77.86 0.14 76.92-0.75L76.92-0.75Q75.52-2.06 75.56-4.36L75.56-4.36Q75.89-8.63 79.64-8.81L79.64-8.81Q82.83-8.63 83.30-6L83.30-6L82.17-6Q81.70-7.78 79.59-7.83L79.59-7.83Q76.92-7.64 76.78-4.31L76.78-4.31Q76.78-0.75 79.64-0.75L79.64-0.75Q80.67-0.75 81.42-1.31L81.42-1.31Q82.36-2.06 82.31-3.61L82.31-3.61ZM90.23-1.08L89.34-1.78L89.95-2.48L91.03-1.64Q92.02-2.63 92.02-4.27L92.02-4.27Q91.83-7.64 89.02-7.83L89.02-7.83Q86.16-7.69 86.02-4.27L86.02-4.27Q86.16-0.94 89.02-0.80L89.02-0.80Q89.72-0.80 90.23-1.08L90.23-1.08ZM91.97-0.94L93.09-0.05L92.53 0.56L91.22-0.33Q90.38 0.14 89.02 0.14L89.02 0.14Q85.08 0 84.80-4.27L84.80-4.27Q85.03-8.72 89.02-8.81L89.02-8.81Q92.91-8.67 93.19-4.27L93.19-4.27Q93.14-2.20 91.97-0.94L91.97-0.94ZM94.73-8.58L95.91-8.58L95.91 0L94.73 0L94.73-8.58Z" transform="translate(-0.1875, 8.8125)"></path></g></g></g></g></g><defs v-gra="od"></defs></svg>